HIERARCHY
ROOT Hips
{
	OFFSET	0.00	0.00	0.00
	CHANNELS 6 Xposition Yposition Zposition Zrotation Xrotation Yrotation
	JOINT LeftUpLeg
	{
		OFFSET	 0.126116	-0.014019	-0.065224
		CHANNELS 3 Zrotation Xrotation Yrotation
		JOINT LeftLeg
		{
			OFFSET	 0.000000	 0.000000	 0.569914
			CHANNELS 3 Zrotation Xrotation Yrotation
			JOINT LeftFoot
			{
				OFFSET	 0.000000	 0.000000	 0.544423
				CHANNELS 3 Zrotation Xrotation Yrotation
				JOINT LeftToeBase
				{
					OFFSET	 0.000000	 0.000000	 0.207117
					CHANNELS 3 Zrotation Xrotation Yrotation
					End Site
					{
						OFFSET	 0.000000	 0.000000	 0.207117
					}
				}
			}
		}
	}
	JOINT RightUpLeg
	{
		OFFSET	-0.124023	-0.008373	-0.065224
		CHANNELS 3 Zrotation Xrotation Yrotation
		JOINT RightLeg
		{
			OFFSET	 0.000000	 0.000000	 0.570047
			CHANNELS 3 Zrotation Xrotation Yrotation
			JOINT RightFoot
			{
				OFFSET	 0.000000	 0.000000	 0.544354
				CHANNELS 3 Zrotation Xrotation Yrotation
				JOINT RightToeBase
				{
					OFFSET	 0.000000	 0.000000	 0.207540
					CHANNELS 3 Zrotation Xrotation Yrotation
					End Site
					{
						OFFSET	 0.000000	 0.000000	 0.207540
					}
				}
			}
		}
	}
	JOINT Spine
	{
		OFFSET	 0.000184	-0.007763	 0.117403
		CHANNELS 3 Zrotation Xrotation Yrotation
		JOINT Spine1
		{
			OFFSET	 0.000000	 0.000000	 0.137269
			CHANNELS 3 Zrotation Xrotation Yrotation
			JOINT Spine2
			{
				OFFSET	 0.000000	 0.000000	 0.156879
				CHANNELS 3 Zrotation Xrotation Yrotation
				JOINT LeftShoulder
				{
					OFFSET	 0.080501	-0.002496	 0.160144
					CHANNELS 3 Zrotation Xrotation Yrotation
					JOINT LeftArm
					{
						OFFSET	 0.000000	 0.000000	 0.164363
						CHANNELS 3 Zrotation Xrotation Yrotation
						JOINT LeftForeArm
						{
							OFFSET	 0.000000	 0.000000	 0.364576
							CHANNELS 3 Zrotation Xrotation Yrotation
							JOINT LeftHand
							{
								OFFSET	 0.000000	 0.000000	 0.360812
								CHANNELS 3 Zrotation Xrotation Yrotation
								JOINT LeftHandIndex1
								{
									OFFSET	 0.000000	 0.000000	 0.086006
									CHANNELS 3 Zrotation Xrotation Yrotation
									JOINT LeftHandIndex2
									{
										OFFSET	 0.000000	 0.000000	 0.047236
										CHANNELS 3 Zrotation Xrotation Yrotation
										JOINT LeftHandIndex3
										{
											OFFSET	-0.004284	-0.000551	 0.038166
											CHANNELS 3 Zrotation Xrotation Yrotation
											End Site
											{
												OFFSET	-0.004284	-0.000551	 0.038166
											}
										}
									}
								}
							}
						}
					}
				}
				JOINT Neck
				{
					OFFSET	 0.000000	 0.000000	 0.176489
					CHANNELS 3 Zrotation Xrotation Yrotation
					JOINT Head
					{
						OFFSET	 0.000000	-0.001747	 0.077940
						CHANNELS 3 Zrotation Xrotation Yrotation
						End Site
						{
							OFFSET	 0.000000	-0.001747	 0.077940
						}
					}
				}
				JOINT RightShoulder
				{
					OFFSET	-0.080363	 0.000306	 0.159706
					CHANNELS 3 Zrotation Xrotation Yrotation
					JOINT RightArm
					{
						OFFSET	 0.000000	 0.000000	 0.164196
						CHANNELS 3 Zrotation Xrotation Yrotation
						JOINT RightForeArm
						{
							OFFSET	 0.000000	 0.000000	 0.365611
							CHANNELS 3 Zrotation Xrotation Yrotation
							JOINT RightHand
							{
								OFFSET	 0.000000	 0.000000	 0.360648
								CHANNELS 3 Zrotation Xrotation Yrotation
								JOINT RightHandIndex1
								{
									OFFSET	 0.000000	 0.000000	 0.069977
									CHANNELS 3 Zrotation Xrotation Yrotation
									JOINT RightHandIndex2
									{
										OFFSET	 0.000000	 0.000000	 0.052305
										CHANNELS 3 Zrotation Xrotation Yrotation
										JOINT RightHandIndex3
										{
											OFFSET	 0.009002	-0.000782	 0.042196
											CHANNELS 3 Zrotation Xrotation Yrotation
											End Site
											{
												OFFSET	 0.009002	-0.000782	 0.042196
											}
										}
									}
								}
							}
						}
					}
				}
			}
		}
	}
}
MOTION
Frames:    8
Frame Time: 0.03333334
 0.012126	 0.036145	 1.219336	 179.982000	 0.608568	 0.457267	-7.397538	-10.576380	-178.214800	-1.710876	-40.185300	-6.990146	-167.400600	 84.344600	 153.763000	-2.205194	 46.526280	-0.466837	-2.535774	-9.963891	-179.274200	 6.614942	-39.854040	 9.546877	-169.313400	 84.204540	 178.531200	 2.359777	 32.880760	 0.100460	-21.138960	 5.356005	 1.110975	-0.330391	 9.582418	-2.122862	 5.151422	-23.666250	 4.024783	-91.229310	 83.958340	 178.242600	 40.360650	 67.132360	-59.570400	-3.589337	 1.725556	-7.962992	 3.742649	-35.131520	-19.438280	-11.590660	 8.216186	-24.494630	-5.213937	-0.202400	 3.566957	-1.378229	 35.397820	-2.634230	-1.377367	 7.040547	 5.369480	-2.954506	-19.854540	-7.289331	 87.726820	 87.419040	-176.798800	-72.986600	 61.270740	 70.649800	 3.500092	 1.693685	 7.979680	-13.694290	-29.623450	 29.862690	-0.621212	 25.651590	-61.784110	 5.070519	-0.690904	-9.399550	-2.350882	 35.473990	 5.254307
 0.011801	 0.034625	 1.220451	-179.819200	 0.591850	 0.225298	-7.302194	-10.735640	-177.846200	-1.758576	-39.839690	-6.971788	-168.775700	 85.111920	 155.185400	-2.169564	 48.438840	-0.530413	-2.712460	-10.229960	-179.273700	 6.634035	-39.968940	 9.582121	-167.633200	 84.439970	 176.879600	 2.367535	 31.665490	 0.072577	-23.385900	 5.172045	 1.315656	-0.377406	 9.942809	-2.161345	 5.290580	-23.917820	 4.170620	-91.229170	 83.958340	 178.242500	 44.902750	 68.082430	-62.759340	-5.883092	 2.273108	-8.940925	 0.964878	-35.571450	-21.112270	-11.612270	 7.886811	-24.316430	-5.213937	-0.202400	 3.566957	-1.378229	 35.397820	-2.634230	-1.418192	 6.908216	 5.408237	-3.017565	-20.228880	-7.307876	 87.726760	 87.418820	-176.798700	-75.228200	 61.430490	 72.091410	 6.118952	 2.245402	 8.954078	-10.780700	-29.478360	 31.199170	-0.215772	 26.287610	-61.927270	 5.070519	-0.690904	-9.399550	-2.350882	 35.473990	 5.254307
 0.011979	 0.034259	 1.220681	-179.718800	 0.590935	 0.268614	-7.399559	-10.765190	-177.911400	-1.713731	-39.860510	-6.945442	-168.384800	 85.159200	 154.771000	-2.159740	 48.926930	-0.547312	-2.844100	-10.219590	-179.336000	 6.647072	-39.946610	 9.586451	-167.538700	 84.493630	 176.767000	 2.368185	 31.557970	 0.070140	-23.933880	 5.199347	 1.293326	-0.396738	 10.066280	-2.185252	 5.330235	-24.054050	 4.197165	-91.229250	 83.958310	 178.242600	 45.004300	 67.964740	-62.511600	-6.319257	 2.408081	-9.159411	 0.482517	-35.557510	-21.460120	-11.718690	 7.707520	-24.538630	-5.213937	-0.202400	 3.566957	-1.378229	 35.397820	-2.634230	-1.413572	 6.857865	 5.345286	-3.012202	-20.338170	-7.236222	 87.726830	 87.418890	-176.798800	-75.628060	 61.454050	 72.447640	 6.629450	 2.380928	 9.173985	-10.225350	-29.364210	 31.466850	-0.178805	 26.355800	-61.995130	 5.070519	-0.690904	-9.399550	-2.350882	 35.473990	 5.254307
 0.012153	 0.033876	 1.220887	-179.624900	 0.590380	 0.308797	-7.491053	-10.796570	-177.973800	-1.672011	-39.882090	-6.921235	-167.986700	 85.204330	 154.351700	-2.150258	 49.383080	-0.563383	-2.967958	-10.213220	-179.397700	 6.659820	-39.927880	 9.591277	-167.414200	 84.544180	 176.626500	 2.368787	 31.457510	 0.067866	-24.434380	 5.225801	 1.272478	-0.416157	 10.199590	-2.201939	 5.367177	-24.189790	 4.220031	-91.229310	 83.958340	 178.242600	 44.983690	 67.822300	-62.154270	-6.722220	 2.535770	-9.361358	 0.058018	-35.506100	-21.759400	-11.818640	 7.540469	-24.746320	-5.213937	-0.202400	 3.566957	-1.378229	 35.397820	-2.634230	-1.409301	 6.810812	 5.286468	-3.006960	-20.440380	-7.169249	 87.727090	 87.418960	-176.799000	-76.132930	 61.491710	 72.970200	 7.102438	 2.509860	 9.373395	-9.738734	-29.224110	 31.689540	-0.144150	 26.419470	-62.058640	 5.070519	-0.690904	-9.399550	-2.350882	 35.473990	 5.254307
 0.012395	 0.033322	 1.221147	-179.501100	 0.590026	 0.361342	-7.612167	-10.842410	-178.057900	-1.617648	-39.913250	-6.890095	-167.418100	 85.264510	 153.756500	-2.137345	 49.983550	-0.584944	-3.132041	-10.208420	-179.483000	 6.676963	-39.905080	 9.598239	-167.202000	 84.611470	 176.394800	 2.369568	 31.325210	 0.064872	-25.075600	 5.262006	 1.245007	-0.443357	 10.396680	-2.216606	 5.415669	-24.378630	 4.247703	-91.229190	 83.958310	 178.242500	 44.819920	 67.593910	-61.534770	-7.245782	 2.705984	-9.623939	-0.460637	-35.382850	-22.113330	-11.950960	 7.321362	-25.019810	-5.213937	-0.202400	 3.566957	-1.378229	 35.397820	-2.634230	-1.403752	 6.748851	 5.209038	-3.000084	-20.574740	-7.081134	 87.727260	 87.418960	-176.799200	-76.960420	 61.558480	 73.890620	 7.717450	 2.681216	 9.634320	-9.146087	-28.991320	 31.941140	-0.098446	 26.503140	-62.142360	 5.070519	-0.690904	-9.399550	-2.350882	 35.473990	 5.254307
 0.012591	 0.032868	 1.221336	-179.406200	 0.590019	 0.401317	-7.705354	-10.880300	-178.123600	-1.576223	-39.938990	-6.866616	-166.951400	 85.310700	 153.270100	-2.127108	 50.443510	-0.601786	-3.258418	-10.206890	-179.551000	 6.690413	-39.888950	 9.604031	-167.007800	 84.663220	 176.186300	 2.370165	 31.223930	 0.062582	-25.552910	 5.290727	 1.223995	-0.465164	 10.560630	-2.222855	 5.452564	-24.529330	 4.267091	-91.229230	 83.958370	 178.242500	 44.613100	 67.392560	-60.973750	-7.641519	 2.838508	-9.818188	-0.826496	-35.246380	-22.352530	-12.052910	 7.154111	-25.229380	-5.213937	-0.202400	 3.566957	-1.378229	 35.397820	-2.634230	-1.399553	 6.701393	 5.149719	-2.994462	-20.677790	-7.013584	 87.726970	 87.418820	-176.798900	-77.694380	 61.616680	 74.741560	 8.183181	 2.814342	 9.829348	-8.729336	-28.776380	 32.101120	-0.063334	 26.567180	-62.206540	 5.070519	-0.690904	-9.399550	-2.350882	 35.473990	 5.254307
 0.012794	 0.032398	 1.221519	-179.311600	 0.590185	 0.440891	-7.798408	-10.919590	-178.189800	-1.535167	-39.965640	-6.843489	-166.462600	 85.356580	 152.762400	-2.116610	 50.901190	-0.618836	-3.384620	-10.206430	-179.620400	 6.703809	-39.873280	 9.609875	-166.790700	 84.715020	 175.955700	 2.370745	 31.123090	 0.060312	-26.015590	 5.320170	 1.203118	-0.487446	 10.731930	-2.225484	 5.489065	-24.683160	 4.285084	-91.229190	 83.958310	 178.242500	 44.357830	 67.175780	-60.361830	-8.030451	 2.971464	-10.008930	-1.162977	-35.074870	-22.562210	-12.154820	 6.988231	-25.437930	-5.213937	-0.202400	 3.566957	-1.378229	 35.397820	-2.634230	-1.395439	 6.654157	 5.090684	-2.988869	-20.780220	-6.946418	 87.726870	 87.418890	-176.798800	-78.491980	 61.674260	 75.685420	 8.641964	 2.947843	 10.021590	-8.346674	-28.531560	 32.231750	-0.028327	 26.630810	-62.270530	 5.070519	-0.690904	-9.399550	-2.350882	 35.473990	 5.254307
 0.012890	 0.031887	 1.221697	-179.215200	 0.608170	 0.428682	-7.897101	-10.975600	-178.197600	-1.488260	-39.966020	-6.812808	-165.992700	 85.415470	 152.270800	-2.109377	 51.208290	-0.630455	-3.476502	-10.243040	-179.636300	 6.700844	-39.890470	 9.611292	-166.731600	 84.747410	 175.898700	 2.371458	 30.999710	 0.057539	-26.449790	 5.338700	 1.218248	-0.517986	 10.898200	-2.210325	 5.513299	-24.845860	 4.301601	-91.229350	 83.958370	 178.242700	 44.096830	 66.935080	-59.737840	-8.444304	 3.103721	-10.194780	-1.489473	-34.868500	-22.736510	-12.222030	 6.876208	-25.572440	-5.213937	-0.202400	 3.566957	-1.378229	 35.397820	-2.634230	-1.403706	 6.623791	 5.063302	-3.005375	-20.890820	-6.938848	 87.727080	 87.418820	-176.799000	-79.341610	 61.718880	 76.695300	 9.067405	 3.080392	 10.206320	-8.035111	-28.272800	 32.337020	-0.037231	 26.624700	-62.308200	 5.070519	-0.690904	-9.399550	-2.350882	 35.473990	 5.254307
